PathFileType	4	(X/Y/Z)	pose_F01_0-80.trc
DataRate	CameraRate	NumFrames	NumMarkers	Units	OrigDataRate	OrigDataStartFrame	OrigNumFrames
30	30	6	21	m	30	66	80
Frame#	Time	CHip			RHip			RKnee			RAnkle			RBigToe			RSmallToe			RHeel			LHip			LKnee			LAnkle			LBigToe			LSmallToe			LHeel			Neck			Nose			RShoulder			RElbow			RWrist			LShoulder			LElbow			LWrist			
		X1	Y1	Z1	X2	Y2	Z2	X3	Y3	Z3	X4	Y4	Z4	X5	Y5	Z5	X6	Y6	Z6	X7	Y7	Z7	X8	Y8	Z8	X9	Y9	Z9	X10	Y10	Z10	X11	Y11	Z11	X12	Y12	Z12	X13	Y13	Z13	X14	Y14	Z14	X15	Y15	Z15	X16	Y16	Z16	X17	Y17	Z17	X18	Y18	Z18	X19	Y19	Z19	X20	Y20	Z20	X21	Y21	Z21	
66	2.2	-0.21324929457186936	1.8349827606803715	-0.5999762582772448	-0.2340287972533409	1.8324063448580052	-0.5387060912474985	-0.23946338639346698	1.6976258087529748	-0.48759597066853694													-0.19502268402010906	1.8354389137393368	-0.6651434668310523	-0.19975493219185717	1.7039461489790728	-0.5971647282027822	-0.20420683251546562	1.5804395988104212	-0.5721116890193048	-0.21721439034645976	1.542614994904681	-0.6280717441197342	-0.20436233247035762	1.550757490444475	-0.6420181457203962				-0.20988404800406402	1.9866550376259127	-0.6105272174771584	-0.2142070210976886	2.0544968918262456	-0.6491365511218458	-0.23339999889853805	1.9827327399021506	-0.5224255304940043	-0.25499346809777945	1.90662337850367	-0.4626922685217097	-0.2369076437598743	1.928527608216281	-0.6045541243715045	-0.1819404062108286	1.9899525502547957	-0.7008216777762716	-0.1560944615622347	1.9177892330956445	-0.7491681661700935	-1.283287313906513	1.8535908202978035	0.3984182379455934
67	2.2333333333333334	-0.21569583496615038	1.8354564622390737	-0.5977090698139039	-0.23614208387605343	1.8330353319408252	-0.5365278620390074	-0.23946338639346698	1.6976258087529748	-0.48759597066853694													-0.19825214389767515	1.8365973834490235	-0.6660969284571361	-0.20065099556357494	1.706858200784183	-0.6005914875276427	-0.20420683251546562	1.5804395988104212	-0.5721116890193048	-0.21767123818089557	1.5415641252944956	-0.6274382661231138	-0.2065006420556844	1.5505352337805165	-0.6398661060434272				-0.21073510092218514	1.986750418236573	-0.6134799717913199	-0.2142594624847906	2.0542148904380837	-0.6492165752671507	-1.683368701982894	1.8897426591080544	1.0626953839490614	-0.253130304479506	1.904261922484123	-0.46459949910226667	-0.23907547075563382	1.9321444415839695	-0.6029609192502269	-0.1819446295850541	1.9899248685213953	-0.7009323352901369	-0.1577379404129199	1.917055826491874	-0.7554860547827812	-1.2781071511752304	1.8520148702870605	0.3865752281043213
68	2.2666666666666666	-0.21867050119659284	1.8327677161896654	-0.598195536976534	-0.2365174492508679	1.8306136936037807	-0.5360145373499752	-0.23946338639346698	1.6976258087529748	-0.48759597066853694													-0.20169586911546775	1.8338849897684633	-0.6665771247207889	-0.20084761581718483	1.7025096547496472	-0.5998711383877056	-0.20420683251546562	1.5804395988104212	-0.5721116890193048	-0.21739866371977812	1.5431245426934632	-0.6279373130019419	-0.20623026319660703	1.5517456601828221	-0.6403837777355308				-0.21086263925665216	1.9863702810016854	-0.6136407275077623	-0.21427183349654355	2.054269839146387	-0.6492574427206605	-0.23529144622672704	1.983658297880488	-0.5205046331787418	-0.25496870820444995	1.9035923800674215	-0.462435812687102	-0.24124643670080081	1.929499504031616	-0.591582081250379	-0.18370579715556526	1.9891718870000534	-0.7070893206964428	-1.1682524440821918	1.8298434745790404	0.26487985778994083	-1.2807674521563241	1.8548459104541932	0.3837833607156804
69	2.3	-0.2178901640907888	1.829964868105557	-0.594779295758662	-0.23837065228174997	1.829163631194868	-0.5336914437206952	-0.23946338639346698	1.6976258087529748	-0.48759597066853694													-0.2007798922417043	1.8327289008195045	-0.6633107742594841	-0.20100155521399124	1.7030324206657605	-0.599702280769269	-0.20420683251546562	1.5804395988104212	-0.5721116890193048	-0.21762516486275935	1.541535988266713	-0.6273575619808142	-0.20638968716908526	1.5499799335123614	-0.639823434080772				-0.21087345774249125	1.986331434178843	-0.6135438549031602	-0.21430185211821512	2.0541489057535727	-0.6493541701620605	-0.23531161806593148	1.9836124516046352	-0.5203219478292915	-0.2568528673979187	1.9048837607891536	-0.4602835363632249	-0.24213328361031286	1.933725453304041	-0.6040747946458729	-0.18372746340260793	1.9891431835949467	-0.7070367712381804	-1.16371649499421	1.8312191799470965	0.2539384112384146	-1.283315049515421	1.8561420417468197	0.3872034055401902
70	2.3333333333333335	-0.2197457028630819	1.8304006861687687	-0.5927916119006897	-0.2383858786898857	1.8311195171001575	-0.5338549245989898	-0.23946338639346698	1.6976258087529748	-0.48759597066853694													-0.20357013649103822	1.833529550189093	-0.6644499233294616	-0.20317113307802875	1.7034581175403436	-0.5975439809064376	-0.20420683251546562	1.5804395988104212	-0.5721116890193048	-0.21942184393311473	1.542583401383194	-0.6259484753252607	-0.20645713347787664	1.552969404788299	-0.6400893824960314				-0.21087674650615595	1.986581088456483	-0.6134488318879144	-0.21430841641611853	2.0542590674571	-0.649318760647374	-0.23728569290405177	1.9835209538923448	-0.5182123587043744	-0.2579370116922292	1.9076749114488314	-0.4555453767690919	-0.24108817512792807	1.93553781800336	-0.5921103194865043	-0.1828817175027257	1.9899031255950659	-0.7039234373383285	-1.133729539422399	1.829667329167628	0.20200394401994048	-1.2937411212662873	1.8520264464014162	0.4019126171065429
71	2.3666666666666667	-0.21972425004118826	1.8294182225757383	-0.5925542393456968	-0.24015290602962186	1.828815221829518	-0.5314645906128114	-0.23946338639346698	1.6976258087529748	-0.48759597066853694													-0.20266471831165928	1.833074171869419	-0.6611101264055865	-0.20285974816239266	1.7039665693927846	-0.5980892679678309	-0.20420683251546562	1.5804395988104212	-0.5721116890193048	-0.21644625912939372	1.542899466339883	-0.6247830273803922	-0.20667636376341034	1.551579535056243	-0.6394814887243337				-0.21004639851399454	1.9880454579668434	-0.6107211642589404	-0.21435804115875612	2.0543448253458405	-0.6492780398128523	-0.2373029296109261	1.9838389745408769	-0.518107163274602	-0.2618749526718922	1.9125994984416366	-0.45194572235660685	-0.24588060234267756	1.9360928902445826	-0.5800115004282337	-0.18112796235613984	1.9904885615938472	-0.6977664958436716	-1.138268067883571	1.8340759440168637	0.20397962218962887	-1.299136744728191	1.8517324497436833	0.40746235133553277
